<?xml version="1.0" encoding="utf-8"?>
<!-- Generator: Adobe Illustrator 16.0.0, SVG Export Plug-In . SVG Version: 6.00 Build 0)  -->
<svg version="1.2" baseProfile="tiny" id="Layer_1" xmlns="http://www.w3.org/2000/svg" xmlns:xlink="http://www.w3.org/1999/xlink"
	 x="0px" y="0px" width="22px" height="22px" viewBox="0 0 22 22" xml:space="preserve">
<path fill="#31353A" d="M4.638,17.332c0,0.7,0.568,1.27,1.27,1.27h10.155c0.7,0,1.27-0.569,1.27-1.27V9.081H4.638V17.332z
	 M14.158,10.984h1.27v5.713h-1.27V10.984z M10.35,10.984h1.27v5.713h-1.27V10.984z M6.542,10.984h1.27v5.713h-1.27V10.984z
	 M17.967,5.908h-3.809v-1.27c0-0.701-0.568-1.27-1.27-1.27H9.081c-0.7,0-1.269,0.568-1.269,1.27v1.27H4.003
	c-0.351,0-0.635,0.283-0.635,0.634v0.635c0,0.351,0.284,0.635,0.635,0.635h13.963c0.351,0,0.635-0.284,0.635-0.635V6.542
	C18.602,6.191,18.317,5.908,17.967,5.908z M12.889,5.908H9.081v-1.27h3.808V5.908z"/>
</svg>
