<?xml version="1.0" encoding="utf-8"?>
<!-- Generator: Adobe Illustrator 16.0.0, SVG Export Plug-In . SVG Version: 6.00 Build 0)  -->
<svg version="1.2" baseProfile="tiny" id="Layer_1" xmlns="http://www.w3.org/2000/svg" xmlns:xlink="http://www.w3.org/1999/xlink"
	 x="0px" y="0px" width="22px" height="22px" viewBox="0 0 22 22" xml:space="preserve">
<path fill="#66696C" d="M6,21h10v-6H6V21z M16,4h-3v3h3V4z M19,1H3C1.895,1,1,1.895,1,3v16c0,1.105,0.895,2,2,2h1v-6
	c0-1.105,0.895-2,2-2h10c1.105,0,2,0.895,2,2v6h1c1.105,0,2-0.895,2-2V3C21,1.895,20.105,1,19,1z M17,8H5V3h12V8z"/>
</svg>
