<?xml version="1.0" encoding="utf-8"?>
<!-- Generator: Adobe Illustrator 16.0.0, SVG Export Plug-In . SVG Version: 6.00 Build 0)  -->
<svg version="1.2" baseProfile="tiny" id="Layer_1" xmlns="http://www.w3.org/2000/svg" xmlns:xlink="http://www.w3.org/1999/xlink"
	 x="0px" y="0px" width="22px" height="22px" viewBox="0 0 22 22" xml:space="preserve">
<path fill="#66696C" d="M20.423,5.646c0-0.342-0.441-0.786-0.785-0.786h-7.855L11.39,3.29c-0.055-0.337-0.442-0.786-0.785-0.786
	H5.106c-0.342,0-0.731,0.448-0.786,0.786L3.928,4.861H2.356c-0.342,0-0.786,0.444-0.786,0.786v0.786h18.852V5.646z M0,8.003
	l1.571,10.212C1.571,18.559,2.015,19,2.356,19h17.281c0.344,0,0.785-0.441,0.785-0.785l1.571-10.212H0z"/>
</svg>
