<?xml version="1.0" encoding="utf-8"?>
<!-- Generator: Adobe Illustrator 16.0.0, SVG Export Plug-In . SVG Version: 6.00 Build 0)  -->
<!DOCTYPE svg PUBLIC "-//W3C//DTD SVG 1.0//EN" "http://www.w3.org/TR/2001/REC-SVG-20010904/DTD/svg10.dtd">
<svg version="1.0" id="Layer_1" xmlns="http://www.w3.org/2000/svg" xmlns:xlink="http://www.w3.org/1999/xlink" x="0px" y="0px"
	 width="22px" height="22px" viewBox="0 0 22 22" enable-background="new 0 0 22 22" xml:space="preserve">
<path opacity="0.7" fill="#31353A" d="M20.658,9.26l0.006-0.007l-9-8L11.658,1.26C11.481,1.103,11.255,1,11,1
	s-0.481,0.103-0.658,0.26l-0.006-0.007l-9,8L1.342,9.26C1.136,9.443,1,9.703,1,10c0,0.552,0.448,1,1,1
	c0.255,0,0.481-0.103,0.658-0.26l0.006,0.007L3,10.449V20c0,0.553,0.448,1,1,1h5v-8h4v8h5c0.553,0,1-0.447,1-1v-9.551l0.336,0.298
	l0.006-0.007C19.52,10.897,19.745,11,20,11c0.553,0,1-0.448,1-1C21,9.703,20.863,9.443,20.658,9.26z M7,16H5v-3h2V16z M17,16h-2v-3
	h2V16z"/>
</svg>
