<?xml version="1.0" encoding="utf-8"?>
<!-- Generator: Adobe Illustrator 16.0.0, SVG Export Plug-In . SVG Version: 6.00 Build 0)  -->
<svg version="1.2" baseProfile="tiny" id="Layer_1" xmlns="http://www.w3.org/2000/svg" xmlns:xlink="http://www.w3.org/1999/xlink"
	 x="0px" y="0px" width="40px" height="40px" viewBox="0 0 40 40" xml:space="preserve">
<path fill="#31353A" d="M28.959,12.041C26.766,9.565,23.57,8,20,8C13.373,8,8,13.373,8,20h3c0-4.971,4.029-9,9-9
	c2.741,0,5.173,1.244,6.82,3.179L24,17h8V9L28.959,12.041z M20,29c-2.741,0-5.173-1.244-6.821-3.18L16,23H8v8l3.041-3.041
	C13.235,30.436,16.43,32,20,32c6.627,0,12-5.373,12-12h-3C29,24.971,24.971,29,20,29z"/>
</svg>
