<?xml version="1.0" encoding="utf-8"?>
<!-- Generator: Adobe Illustrator 16.0.0, SVG Export Plug-In . SVG Version: 6.00 Build 0)  -->
<!DOCTYPE svg PUBLIC "-//W3C//DTD SVG 1.1//EN" "http://www.w3.org/Graphics/SVG/1.1/DTD/svg11.dtd">
<svg version="1.1" id="Layer_1" xmlns="http://www.w3.org/2000/svg" xmlns:xlink="http://www.w3.org/1999/xlink" x="0px" y="0px"
	 width="40px" height="40px" viewBox="0 0 40 40" enable-background="new 0 0 40 40" xml:space="preserve">
<path fill="#66696C" d="M16.984,9c4.442,0,8.043,3.582,8.043,8c0,1.438-0.387,2.785-1.055,3.951L31.06,28l-1.006,2l-2.011,1
	l-7.087-7.049C19.784,24.615,18.429,25,16.984,25c-4.442,0-8.043-3.582-8.043-8S12.542,9,16.984,9z M16.984,21.493
	c2.496,0,4.518-2.012,4.518-4.493s-2.022-4.494-4.518-4.494c-2.496,0-4.518,2.012-4.518,4.494S14.488,21.493,16.984,21.493z"/>
</svg>
