<?xml version="1.0" encoding="utf-8"?>
<!-- Generator: Adobe Illustrator 16.0.0, SVG Export Plug-In . SVG Version: 6.00 Build 0)  -->
<svg version="1.2" baseProfile="tiny" id="Layer_1" xmlns="http://www.w3.org/2000/svg" xmlns:xlink="http://www.w3.org/1999/xlink"
	 x="0px" y="0px" width="40px" height="40px" viewBox="0 0 40 40" xml:space="preserve">
<path fill="#31353C" d="M4,19v2c8,12,24,12,32,0v-2C28,7,12,7,4,19z M20,28c-4.418,0-8-3.582-8-8s3.582-8,8-8s8,3.582,8,8
	S24.418,28,20,28z M20,15.5c0-0.519,0.106-1.009,0.268-1.473C20.177,14.023,20.092,14,20,14c-3.313,0-6,2.687-6,6
	c0,3.313,2.686,6,6,6c3.314,0,6-2.688,6-6c0-0.091-0.021-0.177-0.027-0.267C25.509,19.895,25.02,20,24.5,20
	C22.016,20,20,17.985,20,15.5z"/>
</svg>
